<svg xmlns="http://www.w3.org/2000/svg" viewBox="0 0 160 57.03"><defs><style>.cls-1{fill:#232323;}</style></defs><title>Asset 5</title><g id="Layer_2" data-name="Layer 2"><g id="Layer_1-2" data-name="Layer 1"><path class="cls-1" d="M30.84,2.11a2.1,2.1,0,1,1,4.19,0,2.1,2.1,0,1,1-4.19,0Zm3.68,0a1.59,1.59,0,1,0-3.17,0,1.59,1.59,0,1,0,3.17,0Z"/><path class="cls-1" d="M36.7.1h.6l2.32,3.33h0V.1h.48v4h-.6L37.19.78h0V4.11H36.7Z"/><path class="cls-1" d="M42.19.1h2.52V.54h-2V1.8h1.91v.44H42.66V3.67h2.15v.44H42.19Z"/><path class="cls-1" d="M49.3,2.11a2.1,2.1,0,1,1,4.2,0,2.1,2.1,0,1,1-4.2,0Zm3.69,0a1.59,1.59,0,1,0-3.18,0,1.59,1.59,0,1,0,3.18,0Z"/><path class="cls-1" d="M55.25.1h1c.77,0,1.6.11,1.6,1.1a1.05,1.05,0,0,1-1,1.06L58,4.11h-.59l-1.09-1.8h-.61v1.8h-.48Zm.48,1.77h.43c.53,0,1.21,0,1.21-.66s-.5-.66-1-.66h-.67Z"/><path class="cls-1" d="M62.62.93a1.22,1.22,0,0,0-1-.49,1.6,1.6,0,0,0-1.53,1.67,1.56,1.56,0,0,0,1.53,1.67,1.41,1.41,0,0,0,1.16-.56l.36.3a1.78,1.78,0,0,1-1.52.7,2,2,0,0,1-2-2.11,2,2,0,0,1,2-2.11A1.73,1.73,0,0,1,63,.63Z"/><path class="cls-1" d="M64.9.1h.48V1.8h2.14V.1H68v4h-.48V2.24H65.38V4.11H64.9Z"/><path class="cls-1" d="M71.32.1h.45l1.71,4h-.56l-.41-1h-2l-.42,1h-.54Zm.21.61h0l-.83,2h1.63Z"/><path class="cls-1" d="M75,.1h1c.77,0,1.59.11,1.59,1.1a1,1,0,0,1-1,1.06l1.14,1.85h-.58l-1.09-1.8h-.61v1.8H75Zm.48,1.77h.42c.53,0,1.21,0,1.21-.66s-.5-.66-1-.66h-.67Z"/><path class="cls-1" d="M79.59.1h1.54a1.92,1.92,0,0,1,2,2,1.92,1.92,0,0,1-2,2H79.59Zm.48,3.57H81a1.45,1.45,0,0,0,1.61-1.56A1.45,1.45,0,0,0,81,.54h-.91Z"/><path class="cls-1" d="M87.57.1h1.22c.66,0,1.33.25,1.33,1a.9.9,0,0,1-.7.9h0a1,1,0,0,1,.9,1c0,.88-.82,1.12-1.56,1.12H87.57ZM88,1.8h.66c.45,0,.91-.1.91-.65s-.43-.61-.86-.61H88Zm0,1.87h.8c.46,0,1-.19,1-.7s-.48-.73-1-.73H88Z"/><path class="cls-1" d="M91.67,2.11a2.09,2.09,0,1,1,4.19,0,2.09,2.09,0,1,1-4.19,0Zm3.69,0a1.59,1.59,0,1,0-3.18,0,1.59,1.59,0,1,0,3.18,0Z"/><path class="cls-1" d="M100.47,2.58a1.52,1.52,0,1,1-3,0V.1h.48V2.52c0,.65.24,1.26,1,1.26s1-.61,1-1.26V.1h.48Z"/><path class="cls-1" d="M102.73.1h.48V3.67H105v.44h-2.32Z"/><path class="cls-1" d="M106.91.1h2.52V.54h-2V1.8h1.9v.44h-1.9V3.67h2.15v.44h-2.62Z"/><path class="cls-1" d="M111.26.1h.54L113,3.4h0L114.32.1h.5l-1.57,4h-.46Z"/><path class="cls-1" d="M117.46.1h.45l1.71,4h-.55l-.4-1h-2l-.41,1h-.53Zm.22.61h0l-.84,2h1.64Z"/><path class="cls-1" d="M121.13.1h1c.78,0,1.6.11,1.6,1.1a1.05,1.05,0,0,1-1,1.06l1.14,1.85h-.58l-1.09-1.8h-.61v1.8h-.48Zm.48,1.77H122c.53,0,1.21,0,1.21-.66s-.5-.66-1-.66h-.67Z"/><path class="cls-1" d="M125.65.1h1.54a1.92,1.92,0,0,1,2,2,1.92,1.92,0,0,1-2,2h-1.54Zm.48,3.57h.9a1.45,1.45,0,0,0,1.62-1.56A1.45,1.45,0,0,0,127,.54h-.9Z"/><path class="cls-1" d="M21.16,21.46A10.56,10.56,0,0,0,20,18.69a9.6,9.6,0,0,0-1.89-2.25,8.6,8.6,0,0,0-2.46-1.51,7.74,7.74,0,0,0-2.91-.55,7.48,7.48,0,0,0-3.79,1,8.76,8.76,0,0,0-2.79,2.52,12,12,0,0,0-1.72,3.56,14,14,0,0,0-.6,4.08,13.23,13.23,0,0,0,.63,4.16A10.26,10.26,0,0,0,6.22,33a8.55,8.55,0,0,0,2.83,2.26,8.14,8.14,0,0,0,3.69.83,7.72,7.72,0,0,0,3-.59A9,9,0,0,0,18.25,34a9.12,9.12,0,0,0,1.85-2.2,8.13,8.13,0,0,0,1-2.57h.36L21.4,36H21a8.79,8.79,0,0,0-.77-1c-.27-.29-.45-.43-.55-.43a2.7,2.7,0,0,0-.56.32,8.8,8.8,0,0,1-1.42.71,13.76,13.76,0,0,1-2.24.68,14.4,14.4,0,0,1-3.06.29,15.44,15.44,0,0,1-5.17-.82,11.07,11.07,0,0,1-3.92-2.31A10.09,10.09,0,0,1,.86,29.91,11.88,11.88,0,0,1,0,25.34a11.43,11.43,0,0,1,.08-1.26,10.88,10.88,0,0,1,.27-1.51,13.42,13.42,0,0,1,.55-1.68,12.44,12.44,0,0,1,.91-1.77,11.44,11.44,0,0,1,1.6-2,10.14,10.14,0,0,1,2.25-1.68,12.6,12.6,0,0,1,2.92-1.15,14.38,14.38,0,0,1,3.67-.43,13.87,13.87,0,0,1,3.23.33,14.75,14.75,0,0,1,2.31.74,8.57,8.57,0,0,1,1.42.74,2.66,2.66,0,0,0,.56.34.52.52,0,0,0,.23-.14l.37-.34a5.42,5.42,0,0,0,.41-.46,6.2,6.2,0,0,0,.4-.54h.34v6.9Z"/><path class="cls-1" d="M39.48,36.49v-.31l.45-.06a3.86,3.86,0,0,0,.74-.22,2,2,0,0,0,.67-.43.94.94,0,0,0,.3-.71,4.12,4.12,0,0,0-.17-.91c-.12-.42-.28-.93-.48-1.54s-.45-1.28-.71-2-.55-1.51-.86-2.31H31.23c-.31.78-.61,1.52-.89,2.23l-.87,2.14a7.72,7.72,0,0,0-.64,2.34.9.9,0,0,0,.24.66,1.84,1.84,0,0,0,.63.43,3.46,3.46,0,0,0,.83.25l.85.14v.31H24.82v-.34a3.35,3.35,0,0,0,1.37-.43,2.89,2.89,0,0,0,.66-.46,6.86,6.86,0,0,0,.71-1,22.42,22.42,0,0,0,1.2-2.37q.65-1.45,1.45-3.29l1.64-3.8c.56-1.3,1.13-2.62,1.68-3.94s1.08-2.56,1.57-3.71l-.31-.68a5,5,0,0,0,1-.59,6,6,0,0,0,.79-.71,7.49,7.49,0,0,0,.57-.71c.15-.23.27-.41.36-.56h.24q1,2.55,1.82,4.85c.57,1.53,1.13,3,1.64,4.42s1,2.79,1.52,4.11,1,2.63,1.48,3.93c.23.64.44,1.16.63,1.58l.66,1.43a3.77,3.77,0,0,0,.28.44,4.11,4.11,0,0,0,.57.63,3.56,3.56,0,0,0,.88.57,3.18,3.18,0,0,0,1.23.28v.37Zm-4-18.66c-.12.26-.3.69-.54,1.26L34,21.18c-.35.82-.73,1.75-1.15,2.79S32,26.13,31.5,27.34h7.67q-.52-1.39-1.06-2.77c-.36-.93-.71-1.81-1-2.66l-.92-2.34C35.86,18.86,35.63,18.28,35.45,17.83Z"/><path class="cls-1" d="M68.92,36.49v-.34a5,5,0,0,0,2.22-.56,2.72,2.72,0,0,0,1.2-1.14,3.75,3.75,0,0,0,.27-1,9.67,9.67,0,0,0,.12-1.22c0-1.35.06-2.65.06-3.88V15.82L70.94,20c-.56,1.28-1.12,2.52-1.68,3.73s-1.11,2.45-1.68,3.71l-1.87,4.17c-.1.21-.24.53-.43,1s-.37.89-.55,1.36-.36.88-.53,1.26-.26.63-.31.76h-.19l-2-4.53q-1-2.25-1.89-4.33c-.61-1.39-1.19-2.69-1.73-3.9s-1-2.29-1.45-3.23-.78-1.74-1.06-2.37l-.57-1.29q0,2,0,3.59c0,1,0,2.06,0,3.08s0,2.09,0,3.22v3.94c0,1,0,1.8.09,2.51a5,5,0,0,0,.46,1.79,2.72,2.72,0,0,0,1.13,1.14,6.27,6.27,0,0,0,2.08.6v.31h-8v-.31a5.34,5.34,0,0,0,1.75-.63,3,3,0,0,0,1.08-1.15,5.93,5.93,0,0,0,.59-1.84,18.18,18.18,0,0,0,.21-2.66q.07-1.32.1-3.13c0-1.2,0-2.49,0-3.86V19c0-.41,0-.91,0-1.51a2.83,2.83,0,0,0-.37-1.4,2.75,2.75,0,0,0-.8-.85,3.33,3.33,0,0,0-1-.45c-.35-.09-.65-.16-.89-.2v-.31H58l7.36,16.75q1.35-2.92,2.65-5.82c.86-1.93,1.63-3.67,2.33-5.24s1.25-2.86,1.69-3.89.7-1.64.75-1.8H79.3v.31a3.35,3.35,0,0,0-1.92.52,2.54,2.54,0,0,0-.91,1.17,6.09,6.09,0,0,0-.25,1.63c0,.74-.07,1.47-.09,2.19,0,1,0,1.94,0,2.86v6.13c0,1.09,0,2.24,0,3.45a10.21,10.21,0,0,0,.08,1.18,2.61,2.61,0,0,0,.27.94,1.91,1.91,0,0,0,.23.29,3.2,3.2,0,0,0,.57.49,3.7,3.7,0,0,0,.93.46,4.36,4.36,0,0,0,1.29.23v.31Z"/><path class="cls-1" d="M107.85,29.16a10,10,0,0,1-1.51,3,9,9,0,0,1-2.21,2.09,11.91,11.91,0,0,1-2.68,1.32,14.8,14.8,0,0,1-2.93.7,22.25,22.25,0,0,1-2.93.2H84.35v-.31a5.47,5.47,0,0,0,1.5-.4A2.9,2.9,0,0,0,86.94,35a1.06,1.06,0,0,0,.23-.52,8.38,8.38,0,0,0,.14-.83q.06-.46.1-1c0-.35,0-.69,0-1s0-.67,0-1.17,0-1,0-1.62,0-1.19,0-1.8v-8.9a9.79,9.79,0,0,0-.05-1,5.68,5.68,0,0,0-.14-.86,1.4,1.4,0,0,0-.28-.6,2.44,2.44,0,0,0-1.11-.77,7.35,7.35,0,0,0-1.45-.31v-.31l3.73,0,5.88,0h2c.68,0,1.36,0,2,.09a17.18,17.18,0,0,1,2,.31,10,10,0,0,1,2,.65,11.64,11.64,0,0,1,2.44,1.42,9.56,9.56,0,0,1,2,2,10.23,10.23,0,0,1,1.35,2.74,11.58,11.58,0,0,1,.51,3.56A13.76,13.76,0,0,1,107.85,29.16Zm-3.79-7.48a11.21,11.21,0,0,0-1.54-3.06,9.86,9.86,0,0,0-2.34-2.33,7.21,7.21,0,0,0-3-1.24c-.42-.08-.87-.15-1.36-.2a18,18,0,0,0-1.81-.08l-.8,0c-.29,0-.57,0-.84.06l-.77.08a3.06,3.06,0,0,0-.57.1q-.15,1.51-.19,4.16t0,6.31V29.1c0,1.06,0,1.94,0,2.62,0,.28,0,.6,0,.94s.07.67.11,1a4.43,4.43,0,0,0,.2.86,1.59,1.59,0,0,0,.33.57,2.84,2.84,0,0,0,1.55.79,9.81,9.81,0,0,0,1.77.17c.51,0,1,0,1.59-.08A7.8,7.8,0,0,0,98,35.66a8.14,8.14,0,0,0,5-3.71,13,13,0,0,0,1.65-6.79A11.05,11.05,0,0,0,104.06,21.67Z"/><path class="cls-1" d="M130.52,36.49H111.67v-.31a6.13,6.13,0,0,0,1.43-.4,2.87,2.87,0,0,0,1.09-.77,1.39,1.39,0,0,0,.25-.54c.06-.24.12-.51.16-.82a8.9,8.9,0,0,0,.11-1c0-.34,0-.67,0-1s0-.67,0-1.17,0-1,0-1.62,0-1.19,0-1.8V19.3c0-.37,0-.75,0-1.14s0-.76-.06-1.11a6.5,6.5,0,0,0-.16-.94,1.33,1.33,0,0,0-.3-.6,2.1,2.1,0,0,0-1-.63,13.54,13.54,0,0,0-1.35-.26v-.31h17L131,19.4l-.3.16A15,15,0,0,0,126,15.36a7.33,7.33,0,0,0-1.94-.43,27.27,27.27,0,0,0-3.45-.18c-.44,0-.88,0-1.34,0a8.87,8.87,0,0,0-1,.11c0,.33-.08,1-.11,2s0,2.22,0,3.57v2c0,.54,0,1,0,1.31s0,.6,0,.78v.34h.62l1.06,0,1.2-.08a6.55,6.55,0,0,0,1-.14,5.32,5.32,0,0,0,1.54-.58,3.36,3.36,0,0,0,1-.9,4.09,4.09,0,0,0,.62-1.22,13.37,13.37,0,0,0,.42-1.55H126v9.7h-.37a10.7,10.7,0,0,0-.75-2,5.5,5.5,0,0,0-1.06-1.57,4,4,0,0,0-1.19-.71,5.33,5.33,0,0,0-1.62-.34l-.77,0-.62,0h-1.42a11.37,11.37,0,0,0-.06,1.26v3.69c0,.33,0,.64,0,.94s0,.55,0,.76c0,.66.05,1.27.11,1.86a2.91,2.91,0,0,0,.35,1.31,1.92,1.92,0,0,0,1.32.62,12.85,12.85,0,0,0,2.28.18l1.34,0a16.35,16.35,0,0,0,1.71-.16,6.5,6.5,0,0,0,1.82-.48,6.28,6.28,0,0,0,1.6-1,10,10,0,0,0,1.49-1.59,21.23,21.23,0,0,0,1.49-2.26l.34.09Z"/><path class="cls-1" d="M158.17,15.2a2.8,2.8,0,0,0-1.07,1.33,5.27,5.27,0,0,0-.28,1.71c0,.83-.08,1.72-.12,2.66s-.07,1.92-.1,3.12,0,2.49,0,3.87v2c0,.72,0,1.45,0,2.2s0,1.49,0,2.23v2a.27.27,0,0,1-.08.2.32.32,0,0,1-.23.08.87.87,0,0,1-.56-.31l-4.77-5.54-4.11-4.83L143,21.43q-1.88-2.19-4-4.53v13c0,1,0,2,.08,2.84a5.07,5.07,0,0,0,.38,1.88,2.25,2.25,0,0,0,1.06,1.06,6.43,6.43,0,0,0,2,.51v.31H135v-.31a6,6,0,0,0,1.48-.39,2.38,2.38,0,0,0,1.17-1,4.21,4.21,0,0,0,.56-1.91c.08-.84.14-1.85.18-3,0-.88.07-1.92.09-3.13s0-2.49,0-3.86V19.15c0-.41,0-.91,0-1.51a3.62,3.62,0,0,0-.43-1.46,2.9,2.9,0,0,0-.8-.9,3.08,3.08,0,0,0-1-.46,7.81,7.81,0,0,0-1-.2v-.31h6.25L156,31.37V20.9c0-.82,0-1.61,0-2.35a5.51,5.51,0,0,0-.28-1.77,2.8,2.8,0,0,0-1.09-1.4,5.4,5.4,0,0,0-2.26-.75v-.31H160v.31A4.75,4.75,0,0,0,158.17,15.2Z"/><path class="cls-1" d="M58.1,56.67a1.65,1.65,0,0,1-.34-.17,1.16,1.16,0,0,1-.2-.18l-.08-.1a.88.88,0,0,1-.09-.33,3,3,0,0,1,0-.44c0-.46,0-.89,0-1.29v-2.3c0-.34,0-.7,0-1.07s0-.55,0-.82a2,2,0,0,1,.09-.59.93.93,0,0,1,.32-.42,1.23,1.23,0,0,1,.69-.18h.05v-.23H56v0l-.29.67c-.16.39-.37.86-.63,1.46l-.88,2c-.3.67-.61,1.34-.94,2.07l-2.73-6.21H48v.22H48l.32.07a1.06,1.06,0,0,1,.36.16.92.92,0,0,1,.28.3,1,1,0,0,1,.14.5c0,.23,0,.41,0,.56v1.46c0,.5,0,1,0,1.45s0,.85,0,1.17a6.67,6.67,0,0,1-.08,1,2.11,2.11,0,0,1-.21.67,1.14,1.14,0,0,1-.39.41,2,2,0,0,1-.64.23h0V57h3.13v-.22h0a2.26,2.26,0,0,1-.76-.22,1,1,0,0,1-.4-.4,1.89,1.89,0,0,1-.17-.65c0-.27,0-.58,0-.94V53.07c0-.43,0-.83,0-1.21V50.7c0-.32,0-.68,0-1.09l.11.25c.1.24.24.53.4.89L50.52,52c.2.46.41.94.64,1.46s.48,1.06.71,1.62l.73,1.7v0h.15v0l.12-.28c.06-.14.13-.3.19-.48l.21-.5a3.58,3.58,0,0,1,.16-.37c.25-.57.49-1.09.69-1.56l.63-1.39c.21-.45.42-.92.63-1.4l.6-1.34v4.44c0,.46,0,.95,0,1.45a4.2,4.2,0,0,1,0,.45,1.64,1.64,0,0,1-.1.36,1,1,0,0,1-.43.4,1.79,1.79,0,0,1-.81.2h0V57h4.07v-.22h-.06A1.62,1.62,0,0,1,58.1,56.67Z"/><path class="cls-1" d="M68,54.66a8.3,8.3,0,0,1-.56.85,3.42,3.42,0,0,1-.55.59,2.42,2.42,0,0,1-.58.37,2.56,2.56,0,0,1-.67.18,6.35,6.35,0,0,1-.63.05l-.5,0a4.85,4.85,0,0,1-.84-.07c-.25,0-.41-.11-.46-.21A1,1,0,0,1,63,56c0-.23,0-.46,0-.69,0-.08,0-.17,0-.29s0-.23,0-.35V53.24a3.77,3.77,0,0,1,0-.42h.71l.29,0a1.84,1.84,0,0,1,.59.12,1.51,1.51,0,0,1,.43.25,2,2,0,0,1,.38.57,4.18,4.18,0,0,1,.28.75v0h.23V50.84H65.7v0a5.67,5.67,0,0,1-.16.58,1.6,1.6,0,0,1-.22.45,1.24,1.24,0,0,1-.36.32,2.09,2.09,0,0,1-.56.21l-.37,0-.45,0H63v-.07c0-.07,0-.17,0-.3s0-.29,0-.48v-.74c0-.5,0-.95,0-1.34s0-.58,0-.72l.33,0,.5,0a10.45,10.45,0,0,1,1.29.07,2.86,2.86,0,0,1,.71.16,5.58,5.58,0,0,1,1.74,1.56l0,0,.2-.1-.82-2H60.54v.22h.05a4.8,4.8,0,0,1,.5.09.77.77,0,0,1,.35.23.53.53,0,0,1,.09.2,2.08,2.08,0,0,1,.06.35c0,.13,0,.27,0,.41s0,.29,0,.43V53.4c0,.23,0,.46,0,.68s0,.42,0,.6,0,.33,0,.44,0,.25,0,.38a3.41,3.41,0,0,1,0,.36c0,.11,0,.21-.07.3a.4.4,0,0,1-.08.18,1.05,1.05,0,0,1-.39.27,2.34,2.34,0,0,1-.53.15h0V57h7.17l.6-2.3L68,54.62Z"/><path class="cls-1" d="M78.07,50.26a3.45,3.45,0,0,0-.75-.78,4.26,4.26,0,0,0-.92-.54,3.68,3.68,0,0,0-.76-.25,6.13,6.13,0,0,0-.77-.12c-.26,0-.52,0-.77,0h-4.4v.22h0a2.42,2.42,0,0,1,.53.11,1,1,0,0,1,.4.27.51.51,0,0,1,.09.2,1.72,1.72,0,0,1,.05.32,3.29,3.29,0,0,1,0,.38V53.4c0,.23,0,.46,0,.68s0,.42,0,.6,0,.33,0,.44,0,.25,0,.38,0,.25,0,.36,0,.22,0,.31a.31.31,0,0,1-.08.17,1.09,1.09,0,0,1-.39.26,2,2,0,0,1-.54.15h0V57h4.27A8.8,8.8,0,0,0,75,56.91a6.17,6.17,0,0,0,1.11-.26,4.5,4.5,0,0,0,1-.51,3.46,3.46,0,0,0,.85-.8,3.83,3.83,0,0,0,.57-1.15,5.14,5.14,0,0,0,.21-1.54,4.43,4.43,0,0,0-.2-1.35A3.63,3.63,0,0,0,78.07,50.26ZM72.19,52.8c0-.92,0-1.71,0-2.37s0-1.14.06-1.52l.17,0,.29,0,.31,0h.31c.26,0,.49,0,.67,0a4.29,4.29,0,0,1,.5.08,2.68,2.68,0,0,1,1.09.45,3.62,3.62,0,0,1,.86.86A4.06,4.06,0,0,1,77,51.39a4.12,4.12,0,0,1,.21,1.29,4.91,4.91,0,0,1-.61,2.52,3,3,0,0,1-1.84,1.37,2.79,2.79,0,0,1-.56.11l-.59,0a3.67,3.67,0,0,1-.65-.06,1,1,0,0,1-.56-.28.77.77,0,0,1-.11-.2,1.13,1.13,0,0,1-.07-.31c0-.12,0-.24,0-.37a3.42,3.42,0,0,1,0-.35c0-.25,0-.58,0-1Z"/><path class="cls-1" d="M83,56.63a.85.85,0,0,1-.41-.28.82.82,0,0,1-.09-.41c0-.21,0-.43,0-.65V51.43c0-.2,0-.38,0-.57s0-.38,0-.57,0-.37,0-.56a1,1,0,0,1,.1-.47.71.71,0,0,1,.39-.35,2.55,2.55,0,0,1,.51-.12h.05v-.22H80.05v.22h0a2,2,0,0,1,.53.12.87.87,0,0,1,.38.27.55.55,0,0,1,.09.2,1.89,1.89,0,0,1,.05.32,3.63,3.63,0,0,1,0,.38V53.4c0,.23,0,.46,0,.68v.6c0,.19,0,.33,0,.44s0,.25,0,.38,0,.24,0,.36,0,.21,0,.29a.47.47,0,0,1-.07.17,1.14,1.14,0,0,1-.41.28,2.36,2.36,0,0,1-.52.15h0V57h3.61v-.22h-.05A2.3,2.3,0,0,1,83,56.63Z"/><path class="cls-1" d="M93,48.66l-.14.2-.16.17-.14.13-.05,0-.18-.11a3.13,3.13,0,0,0-.54-.28,5.42,5.42,0,0,0-.87-.28,5.19,5.19,0,0,0-1.22-.13,5.36,5.36,0,0,0-1.39.16,4.63,4.63,0,0,0-1.11.44,4,4,0,0,0-.86.64,4.25,4.25,0,0,0-.61.76,4.67,4.67,0,0,0-.35.67,4.55,4.55,0,0,0-.21.63,4,4,0,0,0-.11.58c0,.18,0,.34,0,.48a4.47,4.47,0,0,0,.33,1.74,3.79,3.79,0,0,0,.94,1.36,4.3,4.3,0,0,0,1.49.88,5.94,5.94,0,0,0,2,.31,5.07,5.07,0,0,0,1.16-.11,4.72,4.72,0,0,0,.85-.25,3.36,3.36,0,0,0,.54-.27l.18-.11s0,0,.17.14a3.09,3.09,0,0,1,.28.35v0h.22l0-2.65H93v0a3,3,0,0,1-.38.95,3.54,3.54,0,0,1-.68.81,3.57,3.57,0,0,1-.92.57,2.88,2.88,0,0,1-1.11.21,3.09,3.09,0,0,1-1.37-.3,3.22,3.22,0,0,1-1-.84,3.75,3.75,0,0,1-.67-1.25,4.88,4.88,0,0,1-.23-1.54,5.24,5.24,0,0,1,.22-1.51A4.56,4.56,0,0,1,87.45,50a3.21,3.21,0,0,1,1-.93,2.76,2.76,0,0,1,1.39-.35,2.83,2.83,0,0,1,1.07.2,3.07,3.07,0,0,1,.91.56,3.72,3.72,0,0,1,.7.83,4.07,4.07,0,0,1,.44,1v0l.23,0V48.63H93Z"/><path class="cls-1" d="M102.69,56.63a1.19,1.19,0,0,1-.32-.2,1.28,1.28,0,0,1-.21-.23,1.39,1.39,0,0,1-.1-.15l-.25-.54c-.07-.16-.15-.35-.23-.59L101,53.45l-.57-1.54-.62-1.66-.68-1.82v0H99v0l-.14.21a2.36,2.36,0,0,1-.49.52,2,2,0,0,1-.37.21l-.05,0,.13.28L97.47,51c-.22.54-.43,1-.63,1.48l-.62,1.43-.54,1.23a8,8,0,0,1-.45.88,2.92,2.92,0,0,1-.26.38,1.46,1.46,0,0,1-.23.16,1.23,1.23,0,0,1-.49.15H94.2V57h2.58v-.22h0l-.32-.05a1.28,1.28,0,0,1-.3-.09.66.66,0,0,1-.22-.15.31.31,0,0,1-.07-.21A2.93,2.93,0,0,1,96,55.4l.32-.8c.1-.26.22-.52.32-.81h3l.31.83c.1.28.19.53.26.75s.14.43.18.58a1.49,1.49,0,0,1,.06.33.3.3,0,0,1-.1.23.72.72,0,0,1-.23.15l-.27.08-.15,0H99.7V57h3.48v-.25h-.05A1.16,1.16,0,0,1,102.69,56.63Zm-3.13-3.19H96.84l.48-1.19.43-1c.13-.31.25-.57.33-.79l.15-.36.21.53c.1.27.22.56.35.88l.39,1C99.31,52.8,99.44,53.12,99.56,53.44Z"/><path class="cls-1" d="M112.06,54.45l0,0c-.09.23-.19.45-.28.66a3.33,3.33,0,0,1-.37.58,2.57,2.57,0,0,1-.52.47,2.49,2.49,0,0,1-.75.33,2.63,2.63,0,0,1-.44.09l-.49.05-.44,0h-.29l-.46,0-.42-.07a1.49,1.49,0,0,1-.32-.09c-.11,0-.15-.08-.16-.09a.94.94,0,0,1-.12-.47c0-.22,0-.46,0-.7s0-.5,0-.71,0-.42,0-.62v-2.1c0-.23,0-.45,0-.67v-.66c0-.22,0-.47,0-.74a.9.9,0,0,1,.13-.47.93.93,0,0,1,.3-.28,1.23,1.23,0,0,1,.38-.14l.36-.07h.05v-.22h-3.8v.22h.05a2.29,2.29,0,0,1,.55.13,1,1,0,0,1,.41.29.46.46,0,0,1,.1.2,2.13,2.13,0,0,1,0,.31c0,.12,0,.24,0,.38V53.4c0,.23,0,.46,0,.68s0,.42,0,.6,0,.33,0,.44,0,.25,0,.37,0,.25,0,.36a2.44,2.44,0,0,1-.07.3.49.49,0,0,1-.08.18,1.09,1.09,0,0,1-.43.27,2.85,2.85,0,0,1-.56.15h0V57h7.52l.45-2.48Z"/></g></g></svg>